<svg id="visual" viewBox="0 0 960 540" width="960" height="540" xmlns="http://www.w3.org/2000/svg" xmlns:xlink="http://www.w3.org/1999/xlink" version="1.1"><path d="M0 44L11.5 43.2C23 42.3 46 40.7 68.8 41.7C91.7 42.7 114.3 46.3 137.2 47.2C160 48 183 46 205.8 46.8C228.7 47.7 251.3 51.3 274.2 53.2C297 55 320 55 342.8 55C365.7 55 388.3 55 411.2 52.3C434 49.7 457 44.3 480 42.5C503 40.7 526 42.3 548.8 42.3C571.7 42.3 594.3 40.7 617.2 40.7C640 40.7 663 42.3 685.8 43.2C708.7 44 731.3 44 754.2 45.8C777 47.7 800 51.3 822.8 53.2C845.7 55 868.3 55 891.2 54.2C914 53.3 937 51.7 948.5 50.8L960 50L960 0L948.5 0C937 0 914 0 891.2 0C868.3 0 845.7 0 822.8 0C800 0 777 0 754.2 0C731.3 0 708.7 0 685.8 0C663 0 640 0 617.2 0C594.3 0 571.7 0 548.8 0C526 0 503 0 480 0C457 0 434 0 411.2 0C388.3 0 365.7 0 342.8 0C320 0 297 0 274.2 0C251.3 0 228.7 0 205.8 0C183 0 160 0 137.2 0C114.3 0 91.7 0 68.8 0C46 0 23 0 11.5 0L0 0Z" fill="#ffd5c9"></path><path d="M0 120L11.5 114.5C23 109 46 98 68.8 98.8C91.7 99.7 114.3 112.3 137.2 116C160 119.7 183 114.3 205.8 114.3C228.7 114.3 251.3 119.7 274.2 121.5C297 123.3 320 121.7 342.8 119C365.7 116.3 388.3 112.7 411.2 110C434 107.3 457 105.7 480 103.8C503 102 526 100 548.8 100C571.7 100 594.3 102 617.2 101.2C640 100.3 663 96.7 685.8 98.3C708.7 100 731.3 107 754.2 111.5C777 116 800 118 822.8 119.8C845.7 121.7 868.3 123.3 891.2 119.7C914 116 937 107 948.5 102.5L960 98L960 48L948.5 48.8C937 49.7 914 51.3 891.2 52.2C868.3 53 845.7 53 822.8 51.2C800 49.3 777 45.7 754.2 43.8C731.3 42 708.7 42 685.8 41.2C663 40.3 640 38.7 617.2 38.7C594.3 38.7 571.7 40.3 548.8 40.3C526 40.3 503 38.7 480 40.5C457 42.3 434 47.7 411.2 50.3C388.3 53 365.7 53 342.8 53C320 53 297 53 274.2 51.2C251.3 49.3 228.7 45.7 205.8 44.8C183 44 160 46 137.2 45.2C114.3 44.3 91.7 40.7 68.8 39.7C46 38.7 23 40.3 11.5 41.2L0 42Z" fill="#ffcebc"></path><path d="M0 174L11.5 168.5C23 163 46 152 68.8 152.8C91.7 153.7 114.3 166.3 137.2 168.2C160 170 183 161 205.8 162C228.7 163 251.3 174 274.2 178.5C297 183 320 181 342.8 178.2C365.7 175.3 388.3 171.7 411.2 166.3C434 161 457 154 480 151.3C503 148.7 526 150.3 548.8 153C571.7 155.7 594.3 159.3 617.2 159.3C640 159.3 663 155.7 685.8 156.5C708.7 157.3 731.3 162.7 754.2 164.5C777 166.3 800 164.7 822.8 167.5C845.7 170.3 868.3 177.7 891.2 175.8C914 174 937 163 948.5 157.5L960 152L960 96L948.5 100.5C937 105 914 114 891.2 117.7C868.3 121.3 845.7 119.7 822.8 117.8C800 116 777 114 754.2 109.5C731.3 105 708.7 98 685.8 96.3C663 94.7 640 98.3 617.2 99.2C594.3 100 571.7 98 548.8 98C526 98 503 100 480 101.8C457 103.7 434 105.3 411.2 108C388.3 110.7 365.7 114.3 342.8 117C320 119.7 297 121.3 274.2 119.5C251.3 117.7 228.7 112.3 205.8 112.3C183 112.3 160 117.7 137.2 114C114.3 110.3 91.7 97.7 68.8 96.8C46 96 23 107 11.5 112.5L0 118Z" fill="#ffc8ae"></path><path d="M0 206L11.5 203.3C23 200.7 46 195.3 68.8 196.3C91.7 197.3 114.3 204.7 137.2 204.7C160 204.7 183 197.3 205.8 198.2C228.7 199 251.3 208 274.2 212.5C297 217 320 217 342.8 216.2C365.7 215.3 388.3 213.7 411.2 207.3C434 201 457 190 480 185.5C503 181 526 183 548.8 187.5C571.7 192 594.3 199 617.2 201.7C640 204.3 663 202.7 685.8 202.7C708.7 202.7 731.3 204.3 754.2 205.2C777 206 800 206 822.8 207.8C845.7 209.7 868.3 213.3 891.2 211.5C914 209.7 937 202.3 948.5 198.7L960 195L960 150L948.5 155.5C937 161 914 172 891.2 173.8C868.3 175.7 845.7 168.3 822.8 165.5C800 162.7 777 164.3 754.2 162.5C731.3 160.7 708.7 155.3 685.8 154.5C663 153.7 640 157.3 617.2 157.3C594.3 157.3 571.7 153.7 548.8 151C526 148.3 503 146.7 480 149.3C457 152 434 159 411.2 164.3C388.3 169.7 365.7 173.3 342.8 176.2C320 179 297 181 274.2 176.5C251.3 172 228.7 161 205.8 160C183 159 160 168 137.2 166.2C114.3 164.3 91.7 151.7 68.8 150.8C46 150 23 161 11.5 166.5L0 172Z" fill="#ffc29f"></path><path d="M0 352L11.5 343C23 334 46 316 68.8 309.7C91.7 303.3 114.3 308.7 137.2 313.2C160 317.7 183 321.3 205.8 323.2C228.7 325 251.3 325 274.2 327.7C297 330.3 320 335.7 342.8 333.8C365.7 332 388.3 323 411.2 316.7C434 310.3 457 306.7 480 308.5C503 310.3 526 317.7 548.8 323.2C571.7 328.7 594.3 332.3 617.2 336.8C640 341.3 663 346.7 685.8 346.7C708.7 346.7 731.3 341.3 754.2 338.7C777 336 800 336 822.8 338.7C845.7 341.3 868.3 346.7 891.2 348.5C914 350.3 937 348.7 948.5 347.8L960 347L960 193L948.5 196.7C937 200.3 914 207.7 891.2 209.5C868.3 211.3 845.7 207.7 822.8 205.8C800 204 777 204 754.2 203.2C731.3 202.3 708.7 200.7 685.8 200.7C663 200.7 640 202.3 617.2 199.7C594.3 197 571.7 190 548.8 185.5C526 181 503 179 480 183.5C457 188 434 199 411.2 205.3C388.3 211.7 365.7 213.3 342.8 214.2C320 215 297 215 274.2 210.5C251.3 206 228.7 197 205.8 196.2C183 195.3 160 202.7 137.2 202.7C114.3 202.7 91.7 195.3 68.8 194.3C46 193.3 23 198.7 11.5 201.3L0 204Z" fill="#ffbd90"></path><path d="M0 465L11.5 465C23 465 46 465 68.8 462.3C91.7 459.7 114.3 454.3 137.2 450.8C160 447.3 183 445.7 205.8 446.7C228.7 447.7 251.3 451.3 274.2 456.7C297 462 320 469 342.8 469.8C365.7 470.7 388.3 465.3 411.2 463.5C434 461.7 457 463.3 480 460.7C503 458 526 451 548.8 451C571.7 451 594.3 458 617.2 462.5C640 467 663 469 685.8 470C708.7 471 731.3 471 754.2 468.3C777 465.7 800 460.3 822.8 461.2C845.7 462 868.3 469 891.2 469.8C914 470.7 937 465.3 948.5 462.7L960 460L960 345L948.5 345.8C937 346.7 914 348.3 891.2 346.5C868.3 344.7 845.7 339.3 822.8 336.7C800 334 777 334 754.2 336.7C731.3 339.3 708.7 344.7 685.8 344.7C663 344.7 640 339.3 617.2 334.8C594.3 330.3 571.7 326.7 548.8 321.2C526 315.7 503 308.3 480 306.5C457 304.7 434 308.3 411.2 314.7C388.3 321 365.7 330 342.8 331.8C320 333.7 297 328.3 274.2 325.7C251.3 323 228.7 323 205.8 321.2C183 319.3 160 315.7 137.2 311.2C114.3 306.7 91.7 301.3 68.8 307.7C46 314 23 332 11.5 341L0 350Z" fill="#ffb880"></path><path d="M0 541L11.5 541C23 541 46 541 68.8 541C91.7 541 114.3 541 137.2 541C160 541 183 541 205.8 541C228.7 541 251.3 541 274.2 541C297 541 320 541 342.8 541C365.7 541 388.3 541 411.2 541C434 541 457 541 480 541C503 541 526 541 548.8 541C571.7 541 594.3 541 617.2 541C640 541 663 541 685.8 541C708.7 541 731.3 541 754.2 541C777 541 800 541 822.8 541C845.7 541 868.3 541 891.2 541C914 541 937 541 948.5 541L960 541L960 458L948.5 460.7C937 463.3 914 468.7 891.2 467.8C868.3 467 845.7 460 822.8 459.2C800 458.3 777 463.7 754.2 466.3C731.3 469 708.7 469 685.8 468C663 467 640 465 617.2 460.5C594.3 456 571.7 449 548.8 449C526 449 503 456 480 458.7C457 461.3 434 459.7 411.2 461.5C388.3 463.3 365.7 468.7 342.8 467.8C320 467 297 460 274.2 454.7C251.3 449.3 228.7 445.7 205.8 444.7C183 443.7 160 445.3 137.2 448.8C114.3 452.3 91.7 457.7 68.8 460.3C46 463 23 463 11.5 463L0 463Z" fill="#fdb46f"></path></svg>